<?xml version="1.0" encoding="UTF-8" standalone="no"?>
<svg
   xmlns:dc="http://purl.org/dc/elements/1.1/"
   xmlns:cc="http://creativecommons.org/ns#"
   xmlns:rdf="http://www.w3.org/1999/02/22-rdf-syntax-ns#"
   xmlns:svg="http://www.w3.org/2000/svg"
   xmlns="http://www.w3.org/2000/svg"
   viewBox="0 0 546.32001 134.14667"
   height="134.14667"
   width="546.32001"
   xml:space="preserve"
   version="1.1"
   id="svg2"><metadata
     id="metadata8"><rdf:RDF><cc:Work
         rdf:about=""><dc:format>image/svg+xml</dc:format><dc:type
           rdf:resource="http://purl.org/dc/dcmitype/StillImage" /></cc:Work></rdf:RDF></metadata><defs
     id="defs6" /><g
     transform="matrix(1.3333333,0,0,-1.3333333,0,134.14667)"
     id="g10"><g
       transform="scale(0.1)"
       id="g12"><path
         id="path14"
         style="fill:#100f0d;fill-opacity:1;fill-rule:nonzero;stroke:none"
         d="m 1413.85,367.105 c -7.43,-18.984 -17.76,-35.378 -30.97,-49.14 -13.22,-13.758 -28.92,-24.649 -47.08,-32.617 -18.18,-7.996 -38.01,-11.981 -59.48,-11.981 -23.14,0 -43.79,3.985 -61.95,11.981 -18.17,7.968 -33.46,18.984 -45.84,33.039 -12.4,14.043 -21.9,30.566 -28.51,49.551 -6.6,19.003 -9.9,39.246 -9.9,60.722 0,21.473 3.3,41.707 9.9,60.707 6.61,19 16.11,35.52 28.51,49.563 12.38,14.043 27.67,25.195 45.84,33.449 18.16,8.262 38.81,12.391 61.95,12.391 21.47,0 41.3,-4 59.48,-11.973 18.16,-7.988 33.86,-19 47.08,-33.043 13.21,-14.039 23.54,-30.563 30.97,-49.551 7.44,-19.004 11.15,-39.523 11.15,-61.543 0,-22.031 -3.71,-42.551 -11.15,-61.555 z m 4.54,187.926 -1.65,0 c -16.52,25.328 -38,44.469 -64.43,57.414 -26.44,12.93 -53.69,19.414 -81.77,19.414 -30.3,0 -57.7,-5.246 -82.2,-15.699 -24.5,-10.465 -45.42,-24.781 -62.77,-42.949 -17.34,-18.18 -30.85,-39.649 -40.48,-64.434 -9.64,-24.777 -14.46,-51.496 -14.46,-80.117 0,-28.652 4.82,-55.344 14.46,-80.137 9.63,-24.765 23.14,-46.25 40.48,-64.425 17.35,-18.164 38.27,-32.489 62.77,-42.95 24.5,-10.449 51.9,-15.691 82.2,-15.691 28.08,0 55.33,6.336 81.77,19.004 26.43,12.656 47.91,31.375 64.43,56.16 l 1.65,0 0,-65.254 56.17,0 0,514.153 -56.17,0 0,-194.489" /><path
         id="path16"
         style="fill:#100f0d;fill-opacity:1;fill-rule:nonzero;stroke:none"
         d="m 1823.38,399.742 c 0,-17.078 -2.76,-33.328 -8.26,-48.73 -5.51,-15.43 -13.5,-29.051 -23.95,-40.887 -10.47,-11.848 -23.42,-21.203 -38.83,-28.098 -15.42,-6.882 -33.04,-10.312 -52.86,-10.312 -11.02,0 -21.89,1.23 -32.63,3.711 -10.74,2.472 -20.52,6.601 -29.32,12.394 -8.82,5.789 -15.84,13.34 -21.07,22.715 -5.23,9.363 -7.84,20.918 -7.84,34.695 0,18.165 6.06,32.747 18.17,43.77 12.1,11.008 27.67,19.414 46.67,25.195 19,5.793 40.19,9.629 63.61,11.575 23.4,1.914 46.67,2.89 69.8,2.89 l 16.51,0 0,-28.918 z m 52.87,-77.656 0,169.348 c 0,23.668 -3.86,44.32 -11.57,61.949 -7.71,17.617 -18.45,32.211 -32.21,43.789 -13.77,11.555 -29.74,20.234 -47.91,26.008 -18.17,5.789 -37.72,8.679 -58.64,8.679 -33.05,0 -62.65,-5.246 -88.81,-15.699 -26.16,-10.465 -47.22,-23.683 -63.18,-39.644 l 31.39,-37.172 c 13.75,13.758 30.56,24.781 50.38,33.035 19.82,8.262 41.3,12.391 64.43,12.391 33.59,0 59.19,-8.204 76.82,-24.598 17.62,-16.406 26.43,-41.27 26.43,-74.613 l 0,-12.301 c -35.24,0 -69.25,-1.25 -102.01,-3.731 -32.77,-2.488 -61.82,-8.007 -87.14,-16.582 -25.34,-8.562 -45.58,-21.55 -60.71,-38.953 -15.16,-17.394 -22.72,-41.015 -22.72,-70.859 0,-21.555 4.26,-39.778 12.8,-54.699 8.53,-14.911 19.27,-27.079 32.22,-36.465 12.93,-9.395 27.25,-16.16 42.94,-20.301 15.7,-4.133 30.99,-6.211 45.85,-6.211 31.39,0 58.24,5.652 80.54,16.934 22.3,11.277 42.26,29.863 59.88,55.75 l 1.66,0 c 0,-10.457 0.55,-21.2 1.65,-32.207 1.09,-11.024 2.48,-21.2 4.13,-30.567 l 50.39,0 c -2.21,11.008 -3.87,24.492 -4.96,40.469 -1.11,15.976 -1.65,31.387 -1.65,46.25" /><path
         id="path18"
         style="fill:#100f0d;fill-opacity:1;fill-rule:nonzero;stroke:none"
         d="m 2252.98,749.52 -56.17,0 0,-127.575 -144.21,0 0,86.504 c 0,13.766 0.95,26.715 2.9,38.828 1.91,12.11 5.49,22.719 10.74,31.797 5.22,9.094 12.67,16.114 22.3,21.067 9.62,4.961 21.9,7.433 36.76,7.433 7.7,0 14.58,-0.551 20.65,-1.644 6.05,-1.118 12.11,-2.481 18.17,-4.129 l 9.91,49.558 c -7.15,2.192 -14.87,3.711 -23.12,4.532 -8.26,0.836 -15.99,1.25 -23.13,1.25 -44.61,0 -77.66,-12.676 -99.14,-38.004 -21.47,-25.332 -32.2,-60.024 -32.2,-104.071 l 0,-93.121 -80.96,0 0,-47.086 80.96,0 0,-339.492 56.16,0 0,339.492 144.21,0 0,-241.191 c 0,-21.473 3.16,-38.828 9.49,-52.051 6.34,-13.203 14.45,-23.679 24.37,-31.387 9.92,-7.714 20.65,-12.937 32.21,-15.691 11.57,-2.746 22.58,-4.121 33.05,-4.121 12.66,0 24.36,0.965 35.1,2.891 10.74,1.921 21.07,4.812 30.96,8.671 l -2.46,48.739 c -7.71,-3.867 -15.84,-6.903 -24.36,-9.102 -8.55,-2.195 -16.67,-3.289 -24.38,-3.289 -8.26,0 -15.98,0.957 -23.11,2.879 -7.19,1.926 -13.37,5.5 -18.61,10.742 -5.23,5.227 -9.23,12.52 -11.97,21.887 -2.75,9.355 -4.12,21.199 -4.12,35.527 l 0,225.496 109.01,0 0,47.086 -109.01,0 0,127.575" /><path
         id="path20"
         style="fill:#100f0d;fill-opacity:1;fill-rule:nonzero;stroke:none"
         d="m 2503.57,520.34 c 9.1,12.113 20.51,21.894 34.29,29.324 13.74,7.438 29.74,11.16 47.89,11.16 15.98,0 31.67,-3.722 47.09,-11.16 15.42,-7.43 26.97,-16.652 34.69,-27.664 l 67.74,59.473 c -15.98,19.265 -37.58,34.402 -64.84,45.429 -27.26,11.008 -55.48,16.52 -84.68,16.52 -29.19,0 -56.57,-4.957 -82.18,-14.871 -25.61,-9.91 -48.05,-23.953 -67.31,-42.117 -19.28,-18.184 -34.56,-40.211 -45.85,-66.094 -11.3,-25.891 -16.93,-54.785 -16.93,-86.738 0,-33.028 5.63,-62.493 16.93,-88.372 11.29,-25.898 26.7,-47.918 46.26,-66.082 19.53,-18.175 42.39,-31.953 68.55,-41.308 26.16,-9.348 53.83,-14.035 83.02,-14.035 29.74,0 57.41,4.824 83.02,14.465 25.6,9.609 46.67,23.25 63.19,40.878 l -61.96,62.774 c -9.36,-11.555 -21.76,-20.371 -37.17,-26.426 -15.43,-6.074 -30.85,-9.094 -46.25,-9.094 -18.74,0 -35.11,3.723 -49.15,11.153 -14.05,7.433 -25.75,17.207 -35.12,29.328 -9.36,12.109 -16.37,25.73 -21.05,40.887 -4.69,15.128 -7.02,30.421 -7.02,45.832 0,15.418 2.19,30.703 6.61,45.847 4.39,15.137 11.14,28.778 20.23,40.891" /><path
         id="path22"
         style="fill:#100f0d;fill-opacity:1;fill-rule:nonzero;stroke:none"
         d="m 3060.79,389 c -4.68,-15.418 -11.7,-29.18 -21.05,-41.297 -9.37,-12.121 -21.2,-22.023 -35.52,-29.738 -14.34,-7.715 -31.39,-11.563 -51.22,-11.563 -19.82,0 -36.9,3.848 -51.2,11.563 -14.34,7.715 -26.17,17.617 -35.52,29.738 -9.38,12.117 -16.4,25.879 -21.07,41.297 -4.67,15.41 -7.02,30.852 -7.02,46.262 0,15.418 2.35,30.691 7.02,45.847 4.67,15.145 11.69,28.762 21.07,40.891 9.35,12.105 21.18,21.883 35.52,29.324 14.3,7.434 31.38,11.149 51.2,11.149 19.83,0 36.88,-3.715 51.22,-11.149 14.32,-7.441 26.15,-17.219 35.52,-29.324 9.35,-12.129 16.37,-25.746 21.05,-40.891 4.68,-15.156 7.02,-30.429 7.02,-45.847 0,-15.41 -2.34,-30.852 -7.02,-46.262 z m 45.02,197.434 c -19.28,18.164 -42.12,32.207 -68.55,42.117 -26.44,9.914 -54.52,14.871 -84.26,14.871 -29.73,0 -57.82,-4.957 -84.24,-14.871 -26.44,-9.91 -49.3,-23.953 -68.56,-42.117 -19.29,-18.184 -34.57,-40.071 -45.84,-65.676 -11.31,-25.613 -16.95,-54.102 -16.95,-85.496 0,-31.387 5.64,-60.032 16.95,-85.899 11.27,-25.898 26.55,-48.047 45.84,-66.504 19.26,-18.449 42.12,-32.91 68.56,-43.359 26.42,-10.461 54.51,-15.695 84.24,-15.695 29.74,0 57.82,5.234 84.26,15.695 26.43,10.449 49.27,24.91 68.55,43.359 19.28,18.457 34.56,40.606 45.85,66.504 11.28,25.867 16.94,54.512 16.94,85.899 0,31.394 -5.66,59.883 -16.94,85.496 -11.29,25.605 -26.57,47.492 -45.85,65.676" /><path
         id="path24"
         style="fill:#100f0d;fill-opacity:1;fill-rule:nonzero;stroke:none"
         d="m 3530.37,387.77 c -5.24,-15.157 -12.94,-28.778 -23.11,-40.887 -10.21,-12.121 -22.47,-21.895 -36.77,-29.328 -14.33,-7.43 -30.57,-11.153 -48.73,-11.153 -19.28,0 -36.08,3.848 -50.38,11.563 -14.34,7.715 -26.17,17.617 -35.53,29.738 -9.37,12.117 -16.39,25.879 -21.06,41.297 -4.69,15.41 -7.03,30.852 -7.03,46.262 0,15.418 2.34,30.691 7.03,45.847 4.67,15.145 11.69,28.762 21.06,40.891 9.36,12.105 21.19,21.883 35.53,29.324 14.3,7.434 31.1,11.149 50.38,11.149 18.16,0 34.4,-3.864 48.73,-11.563 14.3,-7.722 26.56,-17.637 36.77,-29.742 10.17,-12.117 17.87,-25.898 23.11,-41.309 5.23,-15.418 7.85,-30.839 7.85,-46.257 0,-15.411 -2.62,-30.704 -7.85,-45.832 z m 4.55,193.703 -2.48,0 c -4.96,6.605 -11.3,13.48 -18.99,20.644 -7.72,7.153 -16.95,13.758 -27.68,19.828 -10.74,6.051 -23.27,11.153 -37.58,15.278 -14.33,4.129 -30.56,6.199 -48.75,6.199 -28.06,0 -53.97,-5.367 -77.63,-16.11 -23.68,-10.734 -44.07,-25.48 -61.13,-44.195 -17.08,-18.719 -30.28,-40.758 -39.64,-66.074 -9.38,-25.336 -14.06,-52.602 -14.06,-81.781 0,-29.192 4.55,-56.582 13.65,-82.188 9.08,-25.605 22.01,-47.91 38.8,-66.906 16.81,-18.992 37.18,-34.148 61.14,-45.43 23.95,-11.277 51.07,-16.933 81.36,-16.933 28.08,0 54.38,6.066 78.89,18.175 24.48,12.098 43.63,29.735 57.4,52.86 l 1.65,0 0,-59.473 94.17,0 0,514.153 -99.12,0 0,-168.047" /><path
         id="path26"
         style="fill:#100f0d;fill-opacity:1;fill-rule:nonzero;stroke:none"
         d="m 3795.02,473.258 c 2.19,28.086 13.64,51.074 34.29,68.976 20.65,17.883 45.85,26.844 75.57,26.844 15.97,0 29.87,-2.617 41.71,-7.844 11.84,-5.246 21.61,-12.265 29.33,-21.07 7.69,-8.809 13.35,-18.996 16.93,-30.562 3.59,-11.559 5.37,-23.676 5.37,-36.344 l -203.2,0 z m 287.87,49.152 c -9.65,26.699 -23,49.008 -40.07,66.902 -17.07,17.891 -37.3,31.391 -60.71,40.473 -23.4,9.09 -48.87,13.637 -76.4,13.637 -29.74,0 -57.42,-5.106 -83.02,-15.281 -25.61,-10.196 -47.78,-24.512 -66.49,-42.957 -18.73,-18.45 -33.45,-40.758 -44.19,-66.911 -10.74,-26.156 -16.11,-55.211 -16.11,-87.132 0,-32.512 5.37,-61.543 16.11,-87.149 10.74,-25.605 25.6,-47.238 44.6,-64.844 19,-17.628 41.43,-31.269 67.34,-40.878 25.86,-9.641 54.21,-14.465 85.06,-14.465 74.35,0 131.05,26.425 170.16,79.297 l -66.08,52.871 c -11.02,-15.985 -25.06,-28.504 -42.13,-37.586 -17.07,-9.082 -37.99,-13.633 -62.78,-13.633 -14.32,0 -28.08,2.469 -41.3,7.441 -13.21,4.95 -25.06,11.688 -35.51,20.235 -10.47,8.523 -18.87,18.711 -25.2,30.554 -6.33,11.836 -10.06,24.914 -11.15,39.239 l 301.5,0 c 0.55,4.406 0.83,8.8 0.83,13.222 0,4.407 0,8.801 0,13.215 0,35.781 -4.84,67.031 -14.46,93.75" /><path
         id="path28"
         style="fill:#100f0d;fill-opacity:1;fill-rule:nonzero;stroke:none"
         d="M 403.738,980.238 355.82,855.902 449.98,873.02 403.738,980.238" /><path
         id="path30"
         style="fill:#100f0d;fill-opacity:1;fill-rule:nonzero;stroke:none"
         d="M 806.57,107.781 550.496,1006.14 480.895,852.059 0,764.621 0,318.953 l 103.012,96.953 39.293,-56.816 82.211,77.363 29.527,-42.676 66.617,62.696 L 292.867,0 837.297,0 880.898,163.523 806.57,107.781" /><path
         id="path32"
         style="fill:#ffffff;fill-opacity:1;fill-rule:nonzero;stroke:none"
         d="M 103.266,757.992 25.6641,743.879 25.6562,676.441 45.1367,728.02 103.266,757.992" /><path
         id="path34"
         style="fill:#ffffff;fill-opacity:1;fill-rule:nonzero;stroke:none"
         d="m 390.645,758.375 c 3.734,-23.129 23.734,-40.801 47.914,-40.801 26.836,0 48.605,21.758 48.605,48.594 0,3.285 -0.344,6.492 -0.957,9.582 l -95.562,-17.375" /></g></g></svg>