<?xml version="1.0" encoding="UTF-8" standalone="no"?>
<svg
   xmlns:dc="http://purl.org/dc/elements/1.1/"
   xmlns:cc="http://creativecommons.org/ns#"
   xmlns:rdf="http://www.w3.org/1999/02/22-rdf-syntax-ns#"
   xmlns:svg="http://www.w3.org/2000/svg"
   xmlns="http://www.w3.org/2000/svg"
   viewBox="0 0 827.01331 145.26666"
   height="145.26666"
   width="827.01331"
   xml:space="preserve"
   version="1.1"
   id="svg2"><metadata
     id="metadata8"><rdf:RDF><cc:Work
         rdf:about=""><dc:format>image/svg+xml</dc:format><dc:type
           rdf:resource="http://purl.org/dc/dcmitype/StillImage" /></cc:Work></rdf:RDF></metadata><defs
     id="defs6"><clipPath
       id="clipPath18"
       clipPathUnits="userSpaceOnUse"><path
         id="path20"
         d="M 0,1089.5 0,0 l 6202.64,0 0,1089.5 -6202.64,0 z" /></clipPath></defs><g
     transform="matrix(1.3333333,0,0,-1.3333333,0,145.26667)"
     id="g10"><g
       transform="scale(0.1)"
       id="g12"><g
         id="g14"><g
           clip-path="url(#clipPath18)"
           id="g16"><path
             id="path22"
             style="fill:#211c1d;fill-opacity:1;fill-rule:nonzero;stroke:none"
             d="m 1780.93,0.449219 263.879,0 0,1089.049981 -263.879,0 0,-1089.049981 z" /><path
             id="path24"
             style="fill:#211c1d;fill-opacity:1;fill-rule:nonzero;stroke:none"
             d="M 3038.99,0.449219 2380.69,1089.5 l 300.66,0 460.34,-790.84 434.51,790.84 275.24,0 -629.86,-1089.050781 -182.59,0" /><path
             id="path26"
             style="fill:#211c1d;fill-opacity:1;fill-rule:nonzero;stroke:none"
             d="m 4154.81,0.449219 263.93,0 0,1089.049981 -263.93,0 0,-1089.049981 z" /><path
             id="path28"
             style="fill:#211c1d;fill-opacity:1;fill-rule:nonzero;stroke:none"
             d="m 5935.96,294.461 c 0,-48.621 -50.85,-87.969 -113.54,-87.969 l -645.94,0 c -62.68,0 -113.52,39.348 -113.52,87.969 l 0,505.977 c 0,48.527 50.84,87.929 113.52,87.929 l 645.94,0 c 62.69,0 113.54,-39.402 113.54,-87.929 l 0,-505.977 z m 189.27,724.859 c -39.35,34.34 -95.76,69.72 -205.31,69.72 l -840.67,0 c -109.87,0 -166.21,-35.38 -205.53,-69.72 -39.53,-34.234 -77.4,-84.781 -77.4,-187.691 l 0,-574.258 c 0,-101.16 37.87,-151.367 77.4,-186.5116 C 4913.04,35.7188 4969.38,0 5079.25,0 l 840.67,0 c 107.94,0 163.86,35.7188 204.13,70.8594 40.45,35.1446 78.59,85.3516 78.59,186.5116 l 0,574.258 c 0,102.91 -37.87,153.457 -77.41,187.691" /><path
             id="path30"
             style="fill:#211c1d;fill-opacity:1;fill-rule:nonzero;stroke:none"
             d="m 1139.73,294.461 c 0,-48.621 -50.85,-87.969 -113.53,-87.969 l -759.544,0 0.074,87.969 0,505.977 0.247,87.929 759.223,0 c 62.68,0 113.53,-39.402 113.53,-87.929 l 0,-505.977 z M 0.09375,1089.14 0.09375,0 0,0 1123.69,0 c 107.94,0 163.86,35.7188 204.13,70.8594 40.46,35.1446 78.59,85.3516 78.59,186.5116 l 0,574.258 c 0,102.91 -37.87,153.457 -77.41,187.691 -39.35,34.34 -95.76,69.72 -205.31,69.72 l -1123.59625,0 0,0.1" /></g></g></g></g></svg>