<?xml version="1.0" encoding="UTF-8" standalone="no"?>
<svg
   xmlns:dc="http://purl.org/dc/elements/1.1/"
   xmlns:cc="http://creativecommons.org/ns#"
   xmlns:rdf="http://www.w3.org/1999/02/22-rdf-syntax-ns#"
   xmlns:svg="http://www.w3.org/2000/svg"
   xmlns="http://www.w3.org/2000/svg"
   viewBox="0 0 527.33331 161.37334"
   height="161.37334"
   width="527.33331"
   xml:space="preserve"
   version="1.1"
   id="svg2"><metadata
     id="metadata8"><rdf:RDF><cc:Work
         rdf:about=""><dc:format>image/svg+xml</dc:format><dc:type
           rdf:resource="http://purl.org/dc/dcmitype/StillImage" /></cc:Work></rdf:RDF></metadata><defs
     id="defs6"><clipPath
       id="clipPath18"
       clipPathUnits="userSpaceOnUse"><path
         id="path20"
         d="m 0,0 3954.98,0 0,1210 L 0,1210 0,0 Z" /></clipPath></defs><g
     transform="matrix(1.3333333,0,0,-1.3333333,0,161.37333)"
     id="g10"><g
       transform="scale(0.1)"
       id="g12"><g
         id="g14"><g
           clip-path="url(#clipPath18)"
           id="g16"><path
             id="path22"
             style="fill:#ffffff;fill-opacity:1;fill-rule:nonzero;stroke:none"
             d="m 1215.04,576.195 c 0,101.825 -63.13,190.879 -158.15,225.489 4.17,21.496 6.34,42.961 6.34,65.296 0,189.31 -154.011,343.32 -343.32,343.32 -110.594,0 -213.472,-53.04 -278.101,-142.4 -31.786,24.65 -70.84,38.17 -111.567,38.17 -100.472,0 -182.219,-81.75 -182.219,-182.226 0,-22.203 3.973,-43.465 11.403,-63.528 C 64.9609,826.242 0,735.113 0,633.918 0,531.578 63.4609,442.152 158.91,407.754 154.832,386.52 152.641,364.645 152.641,342.492 152.641,153.641 306.281,0 495.129,0 c 110.875,0 213.695,53.25 277.957,142.969 32.012,-25.117 71.137,-38.918 111.711,-38.918 100.476,0 182.223,81.738 182.223,182.219 0,22.203 -3.97,43.464 -11.4,63.535 94.46,34.062 159.42,125.195 159.42,226.39" /><path
             id="path24"
             style="fill:#f1b80c;fill-opacity:1;fill-rule:nonzero;stroke:none"
             d="M 475.098,690.727 746.281,567.102 1019.9,806.832 c 3.99,19.797 5.92,39.504 5.92,60.152 0,168.676 -137.226,305.906 -305.906,305.906 -100.898,0 -195.027,-49.66 -252.254,-132.98 L 422.145,803.758 475.098,690.727" /><path
             id="path26"
             style="fill:#52c4ac;fill-opacity:1;fill-rule:nonzero;stroke:none"
             d="m 194.371,403.539 c -3.973,-19.773 -5.976,-40.293 -5.976,-61.047 0,-169.133 137.601,-306.742 306.734,-306.742 101.75,0 196.332,50.1719 253.473,134.332 L 793.773,405.406 733.469,520.602 461.207,644.715 194.371,403.539" /><path
             id="path28"
             style="fill:#eb248e;fill-opacity:1;fill-rule:nonzero;stroke:none"
             d="m 192.656,872.867 185.852,-43.887 40.722,211.3 c -25.386,19.42 -56.742,30.04 -88.992,30.04 -80.765,0 -146.465,-65.71 -146.465,-146.476 0,-17.832 2.989,-34.949 8.883,-50.977" /><path
             id="path30"
             style="fill:#304194;fill-opacity:1;fill-rule:nonzero;stroke:none"
             d="M 176.52,828.602 C 93.4883,801.102 35.7539,721.488 35.7539,633.922 c 0,-85.234 52.7266,-161.383 131.8711,-191.496 L 428.383,678.133 380.484,780.434 176.52,828.602" /><path
             id="path32"
             style="fill:#87cd26;fill-opacity:1;fill-rule:nonzero;stroke:none"
             d="m 796.266,170.09 c 25.48,-19.578 56.675,-30.289 88.527,-30.289 80.766,0 146.477,65.699 146.477,146.469 0,17.82 -2.98,34.925 -8.88,50.953 L 836.688,380.68 796.266,170.09" /><path
             id="path34"
             style="fill:#266251;fill-opacity:1;fill-rule:nonzero;stroke:none"
             d="M 834.055,429.344 1038.5,381.52 c 83.06,27.468 140.79,107.082 140.79,194.679 0,85.098 -52.84,161.125 -132.15,191.172 L 779.75,533.102 834.055,429.344" /><path
             id="path36"
             style="fill:#231f20;fill-opacity:1;fill-rule:nonzero;stroke:none"
             d="m 1695.74,688.906 c -14.83,-6.281 -27.22,-14.117 -37.18,-23.508 -9.99,-9.41 -17.83,-19.816 -23.5,-31.191 -5.7,-11.398 -9.98,-21.953 -12.83,-31.625 -2.85,-9.691 -4.57,-18.09 -5.13,-25.215 -0.57,-7.125 -0.85,-11.246 -0.85,-12.39 l 276.9,0 c 0,17.66 -2.85,34.472 -8.55,50.425 -5.7,15.934 -14.4,30.051 -26.06,42.313 -11.7,12.238 -26.63,22.058 -44.88,29.465 -18.24,7.406 -39.61,11.117 -64.09,11.117 -21.09,0 -39.03,-3.129 -53.83,-9.391 z m -80.35,-197.433 c 0,-1.145 0.43,-5.848 1.3,-14.094 0.84,-8.27 2.82,-18.09 5.97,-29.488 3.13,-11.399 7.69,-23.508 13.67,-36.309 5.98,-12.824 14.1,-24.652 24.37,-35.469 10.25,-10.836 22.93,-19.816 38.02,-26.937 15.08,-7.125 33.48,-10.664 55.13,-10.664 17.66,0 32.74,1.402 45.29,4.273 12.52,2.828 23.63,7.102 33.33,12.801 9.69,5.699 18.52,12.953 26.48,21.801 7.99,8.832 15.96,19.234 23.94,31.195 4.56,6.844 9.67,11.676 15.39,14.527 5.68,2.848 11.66,4.274 17.94,4.274 10.26,0 19.67,-3.711 28.2,-11.117 8.54,-7.403 12.82,-16.793 12.82,-28.192 0,-6.844 -3.71,-17.097 -11.1,-30.762 -7.42,-13.683 -19.23,-27.351 -35.46,-41.035 -16.26,-13.664 -37.2,-25.625 -62.82,-35.898 -25.65,-10.254 -56.99,-15.371 -94.01,-15.371 -37.61,0 -71.24,6.844 -100.86,20.508 -29.61,13.664 -54.55,32.054 -74.77,55.132 -20.23,23.075 -35.62,49.993 -46.15,80.754 -10.54,30.762 -15.81,62.95 -15.81,96.582 0,34.731 5.4,67.629 16.24,98.692 10.81,31.043 26.35,57.984 46.58,80.758 20.21,22.796 44.58,40.886 73.07,54.269 28.48,13.383 60.38,20.098 95.72,20.098 32.46,0 62.82,-4.86 91.01,-14.528 28.21,-9.695 52.69,-23.812 73.5,-42.312 20.79,-18.52 37.17,-41.164 49.13,-67.934 11.98,-26.789 17.96,-57.269 17.96,-91.441 0,-21.09 -5.14,-37.043 -15.39,-47.879 -10.25,-10.816 -22.21,-16.234 -35.9,-16.234 l -312.79,0" /><path
             id="path38"
             style="fill:#231f20;fill-opacity:1;fill-rule:nonzero;stroke:none"
             d="m 2125.59,310.297 c 0,-12.543 -4.27,-23.207 -12.82,-32.035 -8.55,-8.852 -19.08,-13.254 -31.62,-13.254 -12.52,0 -23.21,4.402 -32.04,13.254 -8.85,8.828 -13.25,19.492 -13.25,32.035 l 0,590.547 c 0,12.523 4.4,23.078 13.25,31.625 8.83,8.551 19.52,12.824 32.04,12.824 12.54,0 23.07,-4.273 31.62,-12.824 8.55,-8.547 12.82,-19.102 12.82,-31.625 l 0,-590.547" /><path
             id="path40"
             style="fill:#231f20;fill-opacity:1;fill-rule:nonzero;stroke:none"
             d="m 2486.24,510.277 c -10.83,-3.41 -23.51,-5.98 -38.03,-7.687 -14.53,-1.703 -29.64,-3.711 -45.29,-5.977 -15.67,-2.289 -30.91,-5.14 -45.72,-8.551 -14.83,-3.41 -28.22,-8.417 -40.18,-14.957 -11.95,-6.562 -21.52,-14.96 -28.62,-25.214 -7.14,-10.254 -10.69,-29.336 -10.69,-45.289 0,-12.543 2.7,-22.946 8.12,-31.192 5.42,-8.269 12.39,-14.832 20.94,-19.668 8.55,-4.836 18.22,-8.265 29.06,-10.254 10.81,-1.984 21.65,-2.976 32.46,-2.976 16.54,0 33.05,1.832 49.59,5.547 16.51,3.691 31.47,9.82 44.85,18.371 13.39,8.547 24.23,20.097 32.49,34.343 8.25,14.227 12.39,37.735 12.39,58.801 l 0,60.684 -21.37,-5.981 z m -206.39,108.969 c -5.98,-3.129 -12.11,-4.707 -18.37,-4.707 -11.42,0 -21.95,3.715 -31.62,11.117 -9.7,7.406 -14.53,17.66 -14.53,30.762 0,5.137 1.4,11.398 4.27,18.805 5.12,11.957 11.96,23.785 20.51,35.465 8.55,11.679 20.08,22.082 34.6,31.195 14.53,9.105 32.49,16.383 53.86,21.801 21.35,5.394 47.43,8.117 78.19,8.117 58.11,0 104.39,-11.551 138.87,-34.625 34.47,-23.055 51.72,-57.121 51.72,-102.129 l 0,-324.914 c 0,-12.543 -4.27,-23.207 -12.82,-32.035 -8.55,-8.852 -19.11,-13.254 -31.63,-13.254 -12.54,0 -23.22,4.402 -32.05,13.254 -8.83,8.828 -13.24,19.492 -13.24,32.035 l 0,19.828 c -11.7,-19.641 -46.3,-45.008 -73.93,-52.992 -27.63,-7.989 -56.84,-11.961 -87.6,-11.961 -19.36,0 -38.88,2.699 -58.54,8.117 -19.65,5.418 -37.33,13.816 -52.98,25.215 -15.69,11.394 -28.36,25.644 -38.03,42.738 -9.7,17.074 -14.53,37.582 -14.53,61.524 0,27.351 5.4,56.253 16.23,74.777 10.82,18.5 25.35,33.762 43.59,45.719 18.22,11.961 39.15,21.07 62.81,27.351 23.64,6.262 48.57,10.817 74.78,13.664 30.2,3.434 53.84,7.274 70.93,11.551 17.1,4.274 29.92,9.258 38.47,14.957 8.55,5.68 13.8,12.242 15.8,19.645 1.99,7.406 3,15.672 3,24.781 0,10.816 -3.15,20.226 -9.41,28.215 -6.28,7.965 -14.25,14.527 -23.92,19.644 -9.69,5.137 -20.53,8.981 -32.48,11.547 -11.96,2.57 -23.64,3.844 -35.04,3.844 -20.51,0 -37.04,-1.703 -49.56,-5.117 -12.54,-3.43 -22.8,-7.985 -30.76,-13.684 -7.99,-5.699 -14.4,-12.543 -19.24,-20.508 -4.85,-7.988 -9.28,-16.234 -13.25,-24.781 -3.41,-6.844 -8.12,-11.832 -14.1,-14.961" /><path
             id="path42"
             style="fill:#231f20;fill-opacity:1;fill-rule:nonzero;stroke:none"
             d="m 3051.99,347.469 c -11.4,-19.645 -26.49,-35.598 -45.29,-47.86 -18.8,-12.257 -40.76,-21.066 -65.82,-26.484 -25.06,-5.418 -51.27,-8.117 -78.62,-8.117 -38.75,0 -71.36,5.851 -97.85,17.508 -26.49,11.675 -48.16,25.363 -64.95,41.035 -16.82,15.648 -28.93,31.191 -36.34,46.562 -7.4,15.391 -11.09,27.071 -11.09,35.059 0,13.082 4.71,23.766 14.1,32.031 9.39,8.27 19.51,12.395 30.32,12.395 6.85,0 13.39,-1.989 19.67,-5.981 6.26,-3.992 11.12,-10.254 14.53,-18.805 9.69,-24.5 25.21,-45.007 46.58,-61.519 21.35,-16.535 51.98,-24.781 91.88,-24.781 18.21,0 33.89,2.136 46.99,6.41 13.1,4.254 23.79,9.953 32.06,17.074 8.24,7.125 14.37,15.09 18.37,23.942 3.97,8.828 5.98,18.066 5.98,27.781 0,19.363 -7.69,33.89 -23.08,43.582 -15.37,9.672 -34.47,17.355 -57.25,23.078 -22.79,5.676 -47.73,10.945 -74.8,15.801 -27.04,4.836 -51.98,11.961 -74.77,21.371 -22.8,9.39 -41.88,22.773 -57.25,40.152 -15.39,17.379 -23.08,41.469 -23.08,72.231 0,44.445 16.24,79.179 48.7,104.261 32.49,25.063 77.78,37.606 135.89,37.606 32.49,0 59.84,-3.434 82.05,-10.254 22.22,-6.844 40.46,-15.672 54.7,-26.508 5.68,-4.555 11.66,-10.105 17.94,-16.664 6.26,-6.543 12.24,-13.668 17.96,-21.352 5.68,-7.707 10.39,-15.261 14.1,-22.644 3.69,-7.426 5.55,-13.969 5.55,-19.664 0,-13.106 -5.12,-23.508 -15.4,-31.195 -10.25,-7.684 -21.34,-11.547 -33.33,-11.547 -7.4,0 -15.17,0.613 -20.5,5.57 -6.15,5.715 -10.35,13.23 -12.58,17.988 -4.56,10.817 -11.34,19.742 -16.48,27.731 -5.11,7.965 -11.83,14.527 -20.07,19.644 -8.27,5.137 -18.24,8.981 -29.92,11.547 -11.68,2.57 -26.36,3.844 -44.02,3.844 -34.75,0 -59.97,-5.547 -75.62,-16.664 -15.69,-11.117 -23.51,-24.934 -23.51,-41.449 0,-12.539 4.56,-22.641 13.67,-30.329 9.11,-7.707 21.22,-14.269 36.33,-19.664 15.09,-5.418 32.32,-9.972 51.7,-13.687 19.36,-3.692 39.03,-7.965 58.97,-12.801 19.93,-4.855 39.6,-10.555 58.98,-17.098 19.34,-6.562 36.59,-15.39 51.7,-26.484 15.09,-11.117 27.2,-24.652 36.31,-40.605 9.11,-15.954 13.69,-35.899 13.69,-59.817 0,-28.496 -5.7,-52.562 -17.1,-72.23" /><path
             id="path44"
             style="fill:#231f20;fill-opacity:1;fill-rule:nonzero;stroke:none"
             d="m 3247.76,765.125 46.99,0 c 10.82,0 20.1,-3.844 27.79,-11.527 7.68,-7.707 11.52,-16.969 11.52,-27.786 0,-11.394 -3.84,-20.808 -11.52,-28.21 -7.69,-7.407 -16.97,-11.098 -27.79,-11.098 l -46.99,0 0,-376.207 c 0,-12.543 -4.43,-23.207 -13.26,-32.035 -8.82,-8.852 -19.51,-13.254 -32.05,-13.254 -12.52,0 -23.06,4.402 -31.6,13.254 -8.55,8.828 -12.83,19.492 -12.83,32.035 l 0,376.207 -45.82,0 c -10.84,0 -20.08,3.691 -27.79,11.098 -7.68,7.402 -11.52,16.816 -11.52,28.21 0,10.817 3.84,20.079 11.52,27.786 7.71,7.683 16.95,11.527 27.79,11.527 l 45.82,0 0,96.41 c 0,12.52 4.28,23.078 12.83,31.625 8.54,8.551 19.08,12.801 31.6,12.801 12.54,0 23.23,-4.25 32.05,-12.801 8.83,-8.547 13.26,-19.105 13.26,-31.625 l 0,-96.41" /><path
             id="path46"
             style="fill:#231f20;fill-opacity:1;fill-rule:nonzero;stroke:none"
             d="m 3468.7,310.297 c 0,-12.543 -4.27,-23.207 -12.82,-32.035 -8.55,-8.852 -19.09,-13.254 -31.63,-13.254 -12.54,0 -23.2,4.402 -32.03,13.254 -8.85,8.828 -13.26,19.492 -13.26,32.035 l 0,409.515 c 0,12.543 4.41,23.227 13.26,32.055 8.83,8.832 19.49,13.258 32.03,13.258 12.54,0 23.08,-4.426 31.63,-13.258 8.55,-8.828 12.82,-19.512 12.82,-32.055 l 0,-409.515 z m -80.76,620.469 c 9.95,9.668 22.06,14.527 36.31,14.527 13.69,0 25.5,-4.859 35.47,-14.527 9.97,-9.696 14.96,-21.672 14.96,-35.899 0,-13.687 -4.99,-25.515 -14.96,-35.469 -9.97,-9.972 -21.78,-14.96 -35.47,-14.96 -14.25,0 -26.36,4.988 -36.31,14.96 -9.97,9.954 -14.96,21.782 -14.96,35.469 0,14.227 4.99,26.203 14.96,35.899" /><path
             id="path48"
             style="fill:#231f20;fill-opacity:1;fill-rule:nonzero;stroke:none"
             d="m 3661.43,283.379 c -28.8,12.238 -53.71,29.484 -74.8,51.699 -21.07,22.234 -37.61,48.852 -49.57,79.914 -11.95,31.043 -17.93,65.387 -17.93,102.992 0,38.164 5.98,72.77 17.93,103.832 11.96,31.039 28.5,57.68 49.57,79.891 21.09,22.234 46,39.461 74.8,51.723 28.75,12.238 59.94,18.371 93.57,18.371 34.18,0 63.79,-5.008 88.88,-14.961 25.06,-9.973 45.72,-21.801 61.95,-35.465 16.26,-13.664 31.34,-28.902 39.34,-43.707 4.7,-8.703 8.95,-15.313 8.95,-25.566 0,-13.125 -4.55,-23.227 -13.66,-30.352 -9.14,-7.121 -19.39,-10.684 -30.77,-10.684 -7.98,0 -15.39,1.985 -22.23,5.977 -6.84,3.996 -11.64,13.062 -17.59,21.25 -10.31,14.191 -4.49,6.168 -11.03,14.715 -6.57,8.547 -14.83,16.234 -24.79,23.078 -9.97,6.82 -21.67,12.238 -35.03,16.23 -13.41,3.973 -28.08,5.981 -44.02,5.981 -17.68,0 -35.18,-3.281 -52.56,-9.82 -17.4,-6.563 -33.05,-16.969 -47.02,-31.196 -13.96,-14.246 -25.19,-32.898 -33.74,-55.972 -8.54,-23.079 -12.82,-50.86 -12.82,-83.325 0,-32.488 4.28,-60.121 12.82,-82.918 8.55,-22.793 19.78,-41.316 33.74,-55.543 13.97,-14.246 29.62,-24.648 47.02,-31.191 17.38,-6.562 34.88,-9.82 52.56,-9.82 15.94,0 30.61,1.984 44.02,5.976 13.36,3.973 25.06,9.391 35.03,16.235 9.96,6.843 18.22,14.527 24.79,23.078 6.54,8.547 11.24,17.375 14.09,26.484 2.85,9.695 7.69,16.516 14.53,20.508 6.84,3.992 14.25,5.98 22.23,5.98 11.38,0 21.79,-3.562 31.2,-10.664 9.39,-7.144 14.09,-16.968 14.09,-29.488 0,-6.281 -2.87,-16.664 -8.54,-31.191 -5.7,-14.528 -15.96,-29.207 -30.77,-44.016 -14.83,-14.828 -35.18,-27.934 -61.11,-39.309 -25.92,-11.398 -59.12,-17.097 -99.56,-17.097 -33.63,0 -64.82,6.109 -93.57,18.371" /></g></g></g></g></svg>