<?xml version="1.0" encoding="UTF-8" standalone="no"?>
<svg
   xmlns:dc="http://purl.org/dc/elements/1.1/"
   xmlns:cc="http://creativecommons.org/ns#"
   xmlns:rdf="http://www.w3.org/1999/02/22-rdf-syntax-ns#"
   xmlns:svg="http://www.w3.org/2000/svg"
   xmlns="http://www.w3.org/2000/svg"
   viewBox="0 0 467.14667 169.48"
   height="169.48"
   width="467.14667"
   xml:space="preserve"
   version="1.1"
   id="svg2"><metadata
     id="metadata8"><rdf:RDF><cc:Work
         rdf:about=""><dc:format>image/svg+xml</dc:format><dc:type
           rdf:resource="http://purl.org/dc/dcmitype/StillImage" /></cc:Work></rdf:RDF></metadata><defs
     id="defs6"><clipPath
       id="clipPath18"
       clipPathUnits="userSpaceOnUse"><path
         id="path20"
         d="m 0,0 3503.59,0 0,1271 L 0,1271 0,0 Z" /></clipPath></defs><g
     transform="matrix(1.3333333,0,0,-1.3333333,0,169.48)"
     id="g10"><g
       transform="scale(0.1)"
       id="g12"><g
         id="g14"><g
           clip-path="url(#clipPath18)"
           id="g16"><path
             id="path22"
             style="fill:#255c9e;fill-opacity:1;fill-rule:nonzero;stroke:none"
             d="m 3479.67,845.324 c -73.32,41.121 -102.91,56.082 -146.29,56.082 -40.12,0 -59.46,-20.554 -59.46,-52.344 0,-95.339 229.67,-69.16 229.67,-291.621 0,-121.492 -66.97,-194.414 -180.7,-194.414 -69.63,0 -102.5,29.942 -153.4,63.575 l 0,136.464 c 73.32,-59.824 102.91,-82.254 158.24,-82.254 42.66,0 59.52,22.43 59.52,59.833 0,104.64 -228.21,65.402 -228.21,295.324 0,110.301 45.67,183.201 163.85,183.201 56.89,0 92.38,-14.94 156.78,-50.486 l 0,-123.36" /><path
             id="path24"
             style="fill:#255c9e;fill-opacity:1;fill-rule:nonzero;stroke:none"
             d="m 1705.71,1013.45 c 104.72,0 150.74,-87.845 150.74,-183.204 0,-69.16 -28.44,-121.516 -86.8,-155.156 -16.24,-6.914 -24.64,-9.024 -36.76,-12.004 l 175.94,-287.059 -123.82,0 -165.72,259.825 0,-259.825 -111.86,0 0,637.423 198.28,0 z m -86.42,-261.7 52,0 c 35.9,0 70.32,18.699 70.32,72.898 0,48.625 -25.44,72.883 -73.32,72.883 l -49,0 0,-145.781" /><path
             id="path26"
             style="fill:#255c9e;fill-opacity:1;fill-rule:nonzero;stroke:none"
             d="m 2441.95,376.027 -120.82,0 -41.87,127.098 -198.28,0 -37.43,-127.098 -119.33,0 189.67,637.413 117.5,0 210.56,-637.413 z m -267.05,486.016 -59.49,-248.625 126.43,0 -66.94,248.625" /><path
             id="path28"
             style="fill:#255c9e;fill-opacity:1;fill-rule:nonzero;stroke:none"
             d="m 2479.32,376.016 111.828,0 0,637.422 -111.828,0 0,-637.422 z" /><path
             id="path30"
             style="fill:#255c9e;fill-opacity:1;fill-rule:nonzero;stroke:none"
             d="m 3110.41,376.027 -92.38,0 -235.34,409.356 0,-409.356 -111.87,0 0,637.413 101.39,0 226.3,-388.799 0,388.799 111.9,0 0,-637.413" /><path
             id="path32"
             style="fill:#255c9e;fill-opacity:1;fill-rule:nonzero;stroke:none"
             d="m 1346.53,727.434 c 43.42,26.171 70.34,72.91 70.34,127.109 0,28.262 -5.53,59.078 -19.52,86.023 -41.05,-36.375 -86.35,-75.937 -100.04,-87.839 2.14,-7.364 3.23,-15.024 3.23,-22.481 0,-33.633 -17.94,-69.16 -64.37,-69.16 l -36.64,0 0,151.824 133.53,87.52 c -19.18,8.14 -42.16,13.02 -69.93,13.02 l -175.46,0 0,-637.423 187.03,0 c 149.67,0 181.09,114.004 181.09,186.922 0,74.778 -35.92,140.215 -109.26,164.485 m -105.84,-233.684 -41.16,0 0,149.562 59.08,0 c 44.92,0 77.84,-24.269 77.84,-71.007 0,-56.121 -25.42,-78.555 -95.76,-78.555" /><path
             id="path34"
             style="fill:#f57c14;fill-opacity:1;fill-rule:nonzero;stroke:none"
             d="m 1505.63,1088.36 c -7.04,4.39 -88.85,-46.53 -140.28,-82.37 l -18.9,-13.088 -131.6,-88.34 0,-97.902 c 28.21,19.219 50.94,37.238 67.22,53.567 l 98.47,84.335 c 0,0 49.23,44.239 75.05,70.098 l 9.62,8.96 c 7.2,6.5 12.1,10.9 12.1,16.99 0,0.31 -0.02,0.67 -0.06,0.99 -0.3,3.44 31.48,44.82 28.38,46.76" /><path
             id="path36"
             style="fill:#f57c14;fill-opacity:1;fill-rule:nonzero;stroke:none"
             d="m 989.504,672.277 80.116,54.414 0,98.016 -71.839,-46.836 c 0,0 -63.984,-41.543 -86.336,-56.086 1.66,12.649 3.379,25.969 3.379,25.969 11.262,83.34 21.641,166.555 21.641,221.875 0,26.789 -2.422,47.061 -8.36,57.631 -4.218,7.5 -10.644,12.33 -18.566,13.97 -10.496,2.14 -22.734,-1.54 -34.434,-10.4 -36.707,-25.56 -54.937,-100.342 -54.937,-227.256 0,-41.043 1.988,-87.742 5.777,-139.765 -4.265,-3.836 -25.359,-22.879 -25.359,-22.879 0.273,0.261 -36.328,-31.953 -36.328,-31.953 -0.039,-0.024 -0.957,-1.243 -1.574,-2.024 -33.926,-29.961 -55.282,-46.785 -63.426,-49.961 -10.117,-4.004 -19.016,-4.883 -27.012,-4.14 46.055,33.996 83.652,106.738 83.652,149.98 0,4.961 -0.5,9.563 -1.554,13.621 -7.5,29.602 -22.422,51.098 -43.203,62.219 -20.34,10.859 -44.961,11.301 -73.164,1.262 l -11.016,-4.465 C 576.16,752.473 421.641,665.637 373.719,638.555 c 5.664,67.773 33.488,376.795 41.242,539.795 5.039,105.28 0,40 0,60.44 0,76.56 -96.184,-0.04 -149.434,-53.28 -22.343,-22.35 -92.187,-86.16 -66.886,-134.72 27.179,-52.255 55.879,-34.78 70.918,-124.696 26.425,-158.145 6.242,-320.242 6.281,-330.703 -8.684,-4.063 -74.942,-35.262 -74.942,-35.262 C 86.7578,507.336 0,467.188 0,401.289 0,391.008 2.11719,380.148 6.54297,368.488 101.258,120.73 230.379,-12.5508 281.258,0.929688 355.078,20.5781 358.086,117.57 362.625,264.328 c 2.277,73.203 4.914,156.082 16.172,249.324 5.949,3.743 130,96.086 153.066,110.86 -11.062,-22.5 -10.965,-44.239 -10.965,-55.957 0,-29.18 4.18,-53.223 10.125,-65.625 9.961,-20.879 18.821,-36.453 41.602,-46.719 28.957,-13.816 54.055,-17.656 103.398,1.719 22.18,8.722 60.157,35.039 102.375,70.437 8.407,-14.414 45,-77.398 45,-77.398 l 33.524,-57.121 c 15.117,-26.875 39.121,-34.5 65.859,-20.84 20.324,10.187 33.742,19.101 37.746,32.207 0.84,2.734 1.192,5.422 1.192,8.078 0,8.816 -3.938,17.176 -7.676,23.855 -38.496,68.508 -41.066,128.204 -41.066,173.606 0,2.937 0,5.801 0.019,8.594 6.582,4.59 76.508,52.929 76.508,52.929 M 235.742,203.102 c -30.304,24.527 -44.656,45.25 -66.816,98.89 -37.5,90.703 14.433,118.742 108.535,172.121 -11.203,-96.582 -19.016,-293.761 -41.719,-271.011 m 374.903,387.554 c -1.321,33.992 -8.399,77.793 35.378,101.035 17.082,9.278 27.024,3.379 32.774,-2.406 11.523,-11.551 -14.293,-65.074 -68.152,-98.629" /></g></g></g></g></svg>