<?xml version="1.0" encoding="UTF-8" standalone="no"?>
<svg
   xmlns:dc="http://purl.org/dc/elements/1.1/"
   xmlns:cc="http://creativecommons.org/ns#"
   xmlns:rdf="http://www.w3.org/1999/02/22-rdf-syntax-ns#"
   xmlns:svg="http://www.w3.org/2000/svg"
   xmlns="http://www.w3.org/2000/svg"
   viewBox="0 0 524.85333 87.493332"
   height="87.493332"
   width="524.85333"
   xml:space="preserve"
   version="1.1"
   id="svg2"><metadata
     id="metadata8"><rdf:RDF><cc:Work
         rdf:about=""><dc:format>image/svg+xml</dc:format><dc:type
           rdf:resource="http://purl.org/dc/dcmitype/StillImage" /></cc:Work></rdf:RDF></metadata><defs
     id="defs6" /><g
     transform="matrix(1.3333333,0,0,-1.3333333,0,87.493333)"
     id="g10"><g
       transform="scale(0.1)"
       id="g12"><path
         id="path14"
         style="fill:#100f0d;fill-opacity:1;fill-rule:nonzero;stroke:none"
         d="M 591.66,655.184 1.00781,656.191 0.28125,280.098 102.324,279.949 c 83.926,-1.582 75.879,-58.777 83.352,-110.801 7.469,-52.886 57.918,-78.8941 100.594,-79.0425 55.476,-0.1446 99.453,47.4215 99.453,104.4845 0.144,43.547 -19.688,75.156 -106.203,112.09 -97.872,41.828 -122.442,100.175 -122.442,157.082 0.141,92.976 71.418,155.066 153.77,154.773 43.398,-0.137 90.39,-13.789 122.445,-49.863 25.723,-29.317 35.203,-58.633 33.766,-94.856 -0.282,-15.808 -2.293,-36.355 29.894,-36.64 l 94.277,-0.438 0.43,218.446 0,0" /><path
         id="path16"
         style="fill:#100f0d;fill-opacity:1;fill-rule:nonzero;stroke:none"
         d="m 592.09,384.004 -89.102,0.574 c 0,0 -94.133,-7.187 -88.523,65.098 2.586,34.777 -7.903,61.222 -14.945,72.433 -18.68,29.168 -50.157,43.543 -87.958,43.692 -55.324,0.285 -96.425,-45.996 -96.574,-94.571 -0.144,-42.097 20.266,-89.386 107.649,-123.3 C 398.086,318.613 444.934,267.598 445.078,197.031 444.934,122.441 388.164,35.5 286.27,35.7812 c -52.598,0.1446 -100.02,12.793 -136.379,64.8128 -18.399,26.449 -25.582,60.508 -26.727,94.855 -1.008,26.153 -7.617,32.051 -25.7304,32.051 L 0.28125,227.207 0,1.00781 590.945,0 l 0.571,380.84 0.574,3.164 0,0" /><path
         id="path18"
         style="fill:#100f0d;fill-opacity:1;fill-rule:nonzero;stroke:none"
         d="m 923.203,463.184 c -14.082,9.492 -40.383,22.996 -75.305,22.996 -42.539,0.285 -65.386,-26.446 -65.242,-58.055 -0.293,-33.488 21.848,-49.445 71.571,-71.145 62.226,-25.867 98.585,-59.058 98.441,-117.988 -0.285,-69.558 -52.746,-115.683 -137.246,-115.398 -38.371,0 -75.305,10.918 -101.75,26.726 l 16.816,46.133 c 20.266,-12.5 53.75,-27.019 87.235,-26.875 51.73,0 77.461,27.883 77.461,62.949 0,36.645 -20.555,57.051 -71.715,77.895 -65.395,26.582 -98.442,63.379 -98.586,110.797 0.285,60.937 48.719,111.093 126.609,110.949 36.938,0 68.266,-10.781 88.82,-23.711 l -17.109,-45.273 0,0" /><path
         id="path20"
         style="fill:#100f0d;fill-opacity:1;fill-rule:nonzero;stroke:none"
         d="m 1301.89,224.051 c 0,-32.196 0.57,-66.113 5.6,-93.414 l -53.89,0.144 -5.75,50.293 -2.16,0 c -19.82,-30.898 -59.64,-58.769 -114.39,-58.633 -73.87,0.149 -112.67,54.61 -112.67,111.375 0.15,93.996 81.19,144.864 224.48,144.004 0.14,33.059 0.29,107.785 -87.66,107.934 -33.35,0.133 -68.27,-9.348 -94.42,-27.883 l -14.23,40.957 c 31.19,20.692 74.59,33.059 117.84,32.91 109.23,-0.293 137.67,-78.468 137.54,-156.074 l -0.29,-151.613 0,0 z m -58.06,109.933 c -73.01,0.149 -164.55,-10.488 -164.84,-92.976 0,-50.442 31.19,-72.582 66.54,-72.715 57.62,0 98.15,44.402 98.15,91.824 l 0.15,73.867 0,0" /><path
         id="path22"
         style="fill:#100f0d;fill-opacity:1;fill-rule:nonzero;stroke:none"
         d="m 1724.4,234.109 c 0,-40.097 2.02,-74.011 3.17,-104.336 l -53.18,0.286 -2.73,61.796 -2.01,0.149 c -17.82,-30.902 -57.77,-70.422 -123.6,-70.277 -58.2,0 -127.04,33.918 -126.89,169.152 l 0.43,231.086 58.92,0 -0.29,-220.598 c -0.28,-76.172 21.55,-129.199 86.23,-129.48 46.27,0 100.75,37.215 101.03,106.199 l 0.43,243.445 59.07,-0.144 -0.58,-287.278 0,0" /><path
         id="path24"
         style="fill:#100f0d;fill-opacity:1;fill-rule:nonzero;stroke:none"
         d="m 2107.39,143.574 c -16.95,-8.625 -55.32,-21.992 -104.9,-22.14 -110.81,0.293 -183.81,80.199 -183.38,200.199 0,120.711 79.04,208.805 198.18,208.668 43.4,-0.145 78.03,-12.938 92.98,-21.129 l -14.95,-48 c -16.24,9.344 -41.81,20.262 -79.62,20.41 -89.38,0 -136.37,-72.434 -136.23,-156.504 -0.44,-94.855 55.62,-154.64 133.66,-154.777 38.36,0 64.66,10.773 83.77,19.394 l 10.49,-46.121 0,0" /><path
         id="path26"
         style="fill:#100f0d;fill-opacity:1;fill-rule:nonzero;stroke:none"
         d="m 2469.7,145.293 c -22,-10.781 -62.52,-24.434 -121.44,-24.285 -113.1,0.144 -180.36,80.906 -180.08,197.887 0.15,123.019 68.41,210.98 172.75,210.98 119.42,-0.578 149.89,-111.098 149.61,-179.074 0.13,-13.504 -0.73,-23.711 -1.45,-33.047 l -263.28,0.43 c 0.44,-108.508 61.37,-149.61 131.08,-149.61 48.13,0 77.16,9.774 101.45,19.688 l 11.36,-42.969 0,0 z m -37.37,216.863 c 0.57,53.313 -20.98,122.297 -97.15,122.442 -70.85,0 -102.18,-67.977 -107.92,-122.008 l 205.07,-0.434 0,0" /><path
         id="path28"
         style="fill:#100f0d;fill-opacity:1;fill-rule:nonzero;stroke:none"
         d="m 2883.15,129.48 -208.09,0.293 0.58,391.907 58.77,-0.149 -0.57,-341.746 149.31,-0.148 0,-50.157" /><path
         id="path30"
         style="fill:#100f0d;fill-opacity:1;fill-rule:nonzero;stroke:none"
         d="m 3266.72,128.77 -61.65,0.148 -34.78,115.254 -118.41,0.281 -33.64,-115.109 -60.36,0 119.14,391.613 72,0 117.7,-392.187 0,0 z m -105.91,161.101 -30.18,102.317 c -7.19,25.734 -13.66,53.464 -19.26,77.46 l -1.15,0 c -5.32,-23.996 -11.5,-52.734 -18.11,-76.886 l -31.04,-102.75 99.74,-0.141 0,0" /><path
         id="path32"
         style="fill:#100f0d;fill-opacity:1;fill-rule:nonzero;stroke:none"
         d="m 3536.47,338.301 c 40.38,-10.352 77.17,-42.969 77.17,-98.156 -0.28,-41.25 -19.39,-65.106 -33.62,-78.465 -25.73,-25.157 -68.27,-36.934 -132.08,-36.653 -34.35,0 -60.35,2.59 -77.17,4.453 l 0.72,385.872 c 21.99,4.597 56.33,8.046 90.82,8.046 117.85,-0.136 138.11,-58.632 137.83,-98.007 0,-37.508 -23.43,-70.137 -63.67,-85.508 l 0,-1.582 z m -70.84,18.679 c 46.41,-0.281 75.87,25.723 75.87,62.231 0.14,46.988 -37.22,58.777 -73.58,59.207 -19.4,-0.148 -31.04,-1.582 -38.09,-3.164 l -0.13,-118.418 35.93,0.144 0,0 z m -36.37,-184.382 c 8.48,-1.582 20.13,-2.012 35.5,-2.012 46.85,-0.148 87.52,19.836 87.66,71.426 0.3,51.59 -43.97,70.703 -88.81,70.847 l -34.06,0 -0.29,-140.261 0,0" /><path
         id="path34"
         style="fill:#100f0d;fill-opacity:1;fill-rule:nonzero;stroke:none"
         d="m 3908.11,458.586 c -12.64,7.039 -36.93,17.539 -68.98,17.676 -45.85,0 -65.24,-27.16 -65.24,-52.168 0,-33.481 21.55,-49.867 70.7,-71.282 62.23,-27.882 91.84,-62.374 91.84,-116.113 -0.15,-65.39 -48.01,-114.543 -135.39,-114.394 -36.35,0 -74.72,10.769 -93.27,23.562 l 13.08,49.727 c 20.84,-12.793 52.17,-23.145 84.07,-23.282 46.13,0.137 72,24.29 72,59.493 0,33.207 -19.68,54.043 -65.82,73.293 -57.62,23.718 -96.57,59.074 -96.14,112.39 0,61.789 49.01,108.352 125.89,108.215 37.08,-0.148 64.81,-9.199 81.63,-17.969 l -14.37,-49.148 0,0" /></g></g></svg>